<?xml version="1.0" encoding="utf-8"?>
<!-- Generator: Adobe Illustrator 22.1.0, SVG Export Plug-In . SVG Version: 6.00 Build 0)  -->
<svg version="1.1"
	 id="Layer_1" xmlns:cc="http://creativecommons.org/ns#" xmlns:dc="http://purl.org/dc/elements/1.1/" xmlns:inkscape="http://www.inkscape.org/namespaces/inkscape" xmlns:rdf="http://www.w3.org/1999/02/22-rdf-syntax-ns#" xmlns:sodipodi="http://sodipodi.sourceforge.net/DTD/sodipodi-0.dtd" xmlns:svg="http://www.w3.org/2000/svg"
	 xmlns="http://www.w3.org/2000/svg" xmlns:xlink="http://www.w3.org/1999/xlink" x="0px" y="0px" viewBox="0 0 100 100"
	 style="enable-background:new 0 0 100 100;" xml:space="preserve">
<g transform="translate(0,-1020.3622)">
	<path d="M14.2,1034.3c-0.7,0-1.3,0.6-1.3,1.3v62.9c0,0.7,0.6,1.3,1.3,1.3h40.7c2.8,5.9,8.9,10.1,15.9,10.1
		c9.7,0,17.6-7.9,17.6-17.6c0-8-5.3-14.7-12.6-16.9v-29.4c0-0.2,0-0.3,0-0.5v-9.8c0-0.7-0.6-1.3-1.3-1.3H14.2z M15.5,1036.8h57.8
		v7.5H15.5V1036.8z M59.5,1039.3c-0.7,0-1.3,0.6-1.3,1.3s0.6,1.3,1.3,1.3c0.7,0,1.3-0.6,1.3-1.3S60.1,1039.3,59.5,1039.3z
		 M64.5,1039.3c-0.7,0-1.3,0.6-1.3,1.3s0.6,1.3,1.3,1.3c0.7,0,1.3-0.6,1.3-1.3S65.2,1039.3,64.5,1039.3z M69.5,1039.3
		c-0.7,0-1.3,0.6-1.3,1.3s0.6,1.3,1.3,1.3c0.7,0,1.3-0.6,1.3-1.3S70.2,1039.3,69.5,1039.3z M15.5,1046.9h57.8v27.9
		c-0.8-0.1-1.7-0.2-2.5-0.2c-3.3,0-6.4,0.9-9,2.5h-6.1v2.5h2.8c-3.3,3.2-5.3,7.7-5.3,12.6H20.5v2.5h32.9c0.1,0.9,0.3,1.7,0.5,2.5
		H15.5V1046.9z M23,1049.4v2.5h45.3v-2.5H23z M25.5,1054.4v2.5h40.2v-2.5H25.5z M21.7,1059.4c-0.7,0-1.3,0.6-1.3,1.3v10.1
		c0,0.7,0.6,1.3,1.3,1.3h10.1c0.7,0,1.3-0.6,1.3-1.3v-10.1c0-0.7-0.6-1.3-1.3-1.3H21.7z M39.3,1059.4c-0.7,0-1.3,0.6-1.3,1.3v10.1
		c0,0.7,0.6,1.3,1.3,1.3h10.1c0.7,0,1.3-0.6,1.3-1.3v-10.1c0-0.7-0.6-1.3-1.3-1.3H39.3z M56.9,1059.4c-0.7,0-1.3,0.6-1.3,1.3v10.1
		c0,0.7,0.6,1.3,1.3,1.3H67c0.7,0,1.3-0.6,1.3-1.3v-10.1c0-0.7-0.6-1.3-1.3-1.3H56.9z M23,1062h7.5v7.5H23V1062z M40.6,1062h7.5v7.5
		h-7.5V1062z M58.2,1062h7.5v7.5h-7.5V1062z M20.5,1077v2.5h12.6v-2.5H20.5z M38.1,1077v2.5h12.6v-2.5H38.1z M70.8,1077
		c8.3,0,15.1,6.7,15.1,15.1c0,8.3-6.7,15.1-15.1,15.1s-15.1-6.7-15.1-15.1C55.7,1083.8,62.4,1077,70.8,1077z M23,1082.1v2.5h7.5
		v-2.5H23z M40.6,1082.1v2.5h7.5v-2.5H40.6z M73.3,1083.3c-0.6,0-1,0.4-1.2,0.9l-5,15.1c-0.2,0.7,0.1,1.4,0.8,1.6
		c0.7,0.2,1.4-0.1,1.6-0.8c0,0,0,0,0,0l5-15.1c0.2-0.7-0.1-1.4-0.8-1.6C73.6,1083.3,73.4,1083.3,73.3,1083.3z M64.5,1086.2
		c-0.3,0-0.6,0.1-0.9,0.4l-4.9,4.6c-0.6,0.4-0.7,1.2-0.3,1.7c0,0.1,0.1,0.1,0.1,0.2c0,0,0,0,0,0c0,0,0,0,0,0l5,4.7
		c0.5,0.5,1.3,0.5,1.8-0.1c0.5-0.5,0.5-1.3-0.1-1.8l0,0l-4-3.8l4-3.8c0.5-0.5,0.5-1.3,0.1-1.8C65.2,1086.3,64.8,1086.2,64.5,1086.2z
		 M77,1086.2c-0.7,0-1.2,0.6-1.2,1.3c0,0.3,0.2,0.7,0.4,0.9l4,3.8l-4,3.8c-0.5,0.5-0.5,1.3-0.1,1.8c0.5,0.5,1.3,0.5,1.8,0.1l0,0
		l5-4.7c0,0,0.1-0.1,0.1-0.1c0,0,0-0.1,0.1-0.1c0,0,0,0,0,0c0.4-0.6,0.3-1.3-0.3-1.8c0,0,0,0-0.1,0l-4.8-4.5
		C77.6,1086.3,77.3,1086.2,77,1086.2z M23,1087.1v2.5h7.5v-2.5H23z M40.6,1087.1v2.5h7.5v-2.5H40.6z"/>
</g>
</svg>
