<?xml version="1.0" encoding="utf-8"?>
<!-- Generator: Adobe Illustrator 22.1.0, SVG Export Plug-In . SVG Version: 6.00 Build 0)  -->
<svg version="1.1" id="Layer_1" xmlns="http://www.w3.org/2000/svg" xmlns:xlink="http://www.w3.org/1999/xlink" x="0px" y="0px"
	 viewBox="0 0 100 100" style="enable-background:new 0 0 100 100;" xml:space="preserve">
<path d="M58.5,79.4L54.5,72c-0.7-1.4-2.2-2.3-3.8-2.3c-0.7,0-1.3,0.2-1.9,0.5L46,71.7c-1,0.5-1.7,1.4-2.1,2.5
	c-0.3,1.1-0.3,2.2,0.3,3.2l3.9,7.3c0.7,1.4,2.2,2.3,3.8,2.3c0.7,0,1.3-0.2,1.9-0.5l2.9-1.5c1-0.5,1.7-1.4,2.1-2.5
	C59.1,81.5,59,80.4,58.5,79.4z M46.5,76.5l-0.1-0.2c-0.2-0.4-0.2-0.9-0.1-1.3c0.1-0.4,0.4-0.8,0.8-1l2.9-1.5
	c0.2-0.1,0.5-0.2,0.8-0.2c0.7,0,1.2,0.4,1.5,1l0.1,0.1C51.2,75.2,46.5,76.5,46.5,76.5z M48.8,80.7C48.8,80.7,48.8,80.7,48.8,80.7
	l-1.1-2.1c1.5-0.4,4.6-1.4,6-3l1,1.9C53.6,79.7,48.8,80.7,48.8,80.7z M56.4,81.8c-0.1,0.4-0.4,0.8-0.8,1l-2.9,1.5
	c-0.8,0.4-1.9,0.1-2.3-0.8L50,83c1.6-0.4,4.6-1.5,5.9-3l0.3,0.6C56.5,80.9,56.5,81.4,56.4,81.8z"/>
<g>
	<path d="M43.5,62.1c-0.2-0.6-0.3-1.2-0.5-1.9c-0.6-2.4-1.3-4.9-2.3-7.3c0-0.1-0.1-0.1-0.1-0.2c0,0,0,0,0,0c0-0.1,0-0.1-0.1-0.2
		c-0.9-2-2.1-3.7-3.5-5c-2.7-2.5-6.3-3.9-10.1-3.9c-4.3,0-8.4,1.7-11.4,4.8c-1.7,1.8-3,4-3.8,6.6c-1,3.4-1.3,7.3-0.6,11.5
		c0.4,2.4,1,5.4,2.5,8.2c0.6,1,1.2,2.1,2.1,2.9c0.1,0.1,0.3,0.2,0.6,0.4c0.1,0.1,0.4,0.3,0.6,0.4v6.3c0,0.7,0.6,1.2,1.2,1.2h14.1
		c0.7,0,1.2-0.6,1.2-1.2c0-0.6,0-1.1,0-1.5c0-0.4,0-0.8,0-1.3c2,0,3.3-0.1,3.8-0.3c2-0.8,3.1-3.8,3-6.4c0-0.6-0.5-1.1-1-1.2
		c-1.6-0.3-2.7-0.8-3.2-1.6c-0.1-0.2-0.2-0.4-0.3-0.6c0,0,0,0,0,0l3.7,0h0c0.6,0,1.2-0.5,1.2-1.1l0.3-3.1h2.1c0.3,0,0.6-0.1,0.8-0.3
		c0.8-0.7,0.6-1.5-0.5-4.8C43.5,62.3,43.5,62.1,43.5,62.1z M38.8,66.2l-0.3,3.1l-2.6,0c-1.5,0-1.5,0-1.7,0.1
		c-0.4,0.1-0.7,0.5-0.8,0.9c0,0.2-0.4,1.9,0.7,3.5c0.8,1.2,2.1,2,3.8,2.5c-0.2,1.6-0.8,2.8-1.3,3c-0.3,0.1-1.7,0.2-3.6,0.2
		c-0.3,0-0.5,0-0.6,0c-0.3,0-0.7,0.1-0.9,0.4C31.1,80,31,80.3,31,80.7c0,1.2,0,1.7,0,2.5c0,0.1,0,0.1,0,0.2H19.4V78
		c0-0.1,0.1-0.1,0.1-0.2c0-0.1,0.1-0.2,0.1-0.3c0.1-0.1,0.1-0.3,0.2-0.4c0-0.1,0.1-0.2,0.1-0.3c0.1-0.2,0.1-0.3,0.2-0.5
		c0-0.1,0.1-0.2,0.1-0.4c0.1-0.2,0.1-0.4,0.2-0.6c0-0.1,0.1-0.3,0.1-0.4c0.1-0.2,0.1-0.4,0.2-0.6c0-0.1,0.1-0.3,0.1-0.4
		c0.1-0.2,0.1-0.4,0.2-0.7c0-0.1,0.1-0.2,0.1-0.4c0.1-0.2,0.1-0.5,0.1-0.7c0-0.1,0-0.2,0.1-0.3c0-0.3,0.1-0.7,0.1-1
		c0-0.3-0.1-0.7-0.3-0.9c-0.2-0.2-0.4-0.3-0.6-0.4c-0.4-0.2-4-2-3-7.2c0.4-2.2,1.9-2.6,3.1-2.6c0.9,0,1.9,0.3,2.4,0.8
		c0.3,0.2,0.7,0.3,1.1,0.2c0.4-0.1,0.7-0.4,0.8-0.7c0,0,1-2.1,5-4.8c0.1-0.1,0.2-0.1,0.4-0.2l0.1-0.1c1.5-0.9,3.1-1.3,4.9-1.3l0.1,0
		c0.2,0,0.5,0,0.8,0c0,0,0.1,0,0.1,0c0.3,0,0.5,0,0.8,0.1c0,0,0.1,0,0.1,0c0.2,0,0.5,0.1,0.7,0.1c0,0,0.1,0,0.1,0
		c0.2,0.1,0.4,0.1,0.6,0.2c0,0,0,0,0,0c0,0,0,0,0,0c0.9,2.1,1.5,4.5,2.1,6.8c0.2,0.6,0.3,1.3,0.5,1.9c0,0.1,0.1,0.3,0.2,0.6
		c0.2,0.7,0.4,1.4,0.6,1.8H40C39.4,65.1,38.9,65.6,38.8,66.2z"/>
	<circle cx="34.5" cy="62" r="1.9"/>
	<path d="M90.3,55.4c-0.8-2.6-2.1-4.9-3.8-6.6c-2.9-3-7.1-4.8-11.4-4.8c-3.8,0-7.4,1.4-10.1,3.9c-1.4,1.4-2.6,3.1-3.6,5.2
		c-1.1,2.4-1.8,5-2.4,7.5c-0.2,0.6-0.3,1.3-0.5,1.9c-1.5,5.5-1.3,5.7-0.6,6.2c0.2,0.2,0.4,0.3,0.7,0.3c0.1,0,0.1,0,2.2,0l0.4,5.2
		c0,0.1,0,0.2,0.1,0.3c0.1,2.5,1.4,5.5,3.3,6.2c0.6,0.2,2.5,0.5,3.9,0.6c0,0.8,0,1.5,0,2.2l0,1.6c0,0.7,0.6,1.2,1.2,1.2h14.1
		c0.7,0,1.2-0.6,1.2-1.2v-6.3c0.2-0.1,0.5-0.3,0.6-0.4c0.3-0.2,0.5-0.3,0.6-0.4c0.9-0.8,1.6-1.9,2.1-2.9c1.5-2.8,2.1-5.8,2.5-8.2
		C91.5,62.7,91.3,58.9,90.3,55.4z M68.6,74.9c0.6-0.3,0.9-1,0.7-1.6c-0.3-0.6-1-0.9-1.6-0.7c-1.6,0.6-3.1,0.6-4,0.5l-0.5-5.4
		c-0.1-0.6-0.6-1.1-1.2-1.1c0,0-1,0-1.9,0c0.2-0.8,0.4-1.9,0.8-3.4c0.2-0.6,0.3-1.3,0.5-1.9c0.6-2.3,1.2-4.6,2.1-6.7c0,0,0,0,0,0
		c0,0,0,0,0,0c0.2-0.1,0.4-0.2,0.6-0.2c0,0,0.1,0,0.1,0c0.2-0.1,0.5-0.1,0.7-0.1c0,0,0.1,0,0.1,0c0.3,0,0.5-0.1,0.8-0.1
		c0,0,0.1,0,0.1,0c0.3,0,0.5,0,0.7,0c0.2,0,0.4,0,0.6,0c1.7,0.1,3.1,0.5,4.6,1.3c0.1,0.1,0.3,0.2,0.4,0.2c4,2.7,5,4.8,5,4.8
		c0.1,0.4,0.5,0.6,0.8,0.7c0.4,0.1,0.8,0,1.1-0.2c0.1-0.1,0.3-0.2,0.4-0.3c0.1,0,0.1-0.1,0.2-0.1c0.1-0.1,0.3-0.1,0.4-0.2
		c0.1,0,0.1,0,0.2-0.1c0.2-0.1,0.4-0.1,0.6-0.1c0.1,0,0.1,0,0.2,0c0.1,0,0.3,0,0.4,0c0.1,0,0.2,0,0.3,0c0,0,0.1,0,0.1,0
		c0.1,0,0.2,0,0.4,0c0,0,0.1,0,0.1,0c0.1,0,0.2,0.1,0.3,0.1c0,0,0.1,0,0.1,0c0,0,0,0,0,0c0.2,0.1,0.4,0.2,0.6,0.3
		c0,0,0.1,0.1,0.1,0.1c0.1,0.1,0.2,0.2,0.4,0.4c0,0.1,0.1,0.1,0.1,0.2c0.1,0.1,0.2,0.3,0.3,0.5c0,0.1,0.1,0.1,0.1,0.2
		c0.1,0.2,0.2,0.5,0.2,0.8c1,5.2-2.7,7-3,7.2c-0.2,0.1-0.5,0.2-0.6,0.4c-0.1,0.1-0.1,0.2-0.2,0.3c0,0,0,0,0,0c0,0.1-0.1,0.2-0.1,0.3
		c-0.1,0.2-0.1,0.5,0,0.7c0,0.2,0,0.5,0.1,0.7c0,0.1,0,0.2,0.1,0.3c0,0.2,0.1,0.5,0.1,0.7c0,0.1,0.1,0.3,0.1,0.4
		c0,0.2,0.1,0.4,0.1,0.6c0,0.2,0.1,0.3,0.1,0.4c0.1,0.2,0.1,0.4,0.2,0.6c0,0.2,0.1,0.3,0.1,0.5c0.1,0.2,0.1,0.3,0.2,0.5
		c0.1,0.2,0.1,0.3,0.2,0.4c0.1,0.1,0.1,0.3,0.2,0.4c0.1,0.2,0.1,0.3,0.2,0.4c0,0.1,0.1,0.2,0.1,0.3c0.1,0.2,0.1,0.3,0.2,0.5
		c0,0,0,0.1,0,0.1v5.4H71l0-0.4c0-1.1,0-2.1,0-3.4c0-0.3-0.1-0.7-0.4-0.9c-0.2-0.2-0.6-0.4-0.9-0.4c-0.6,0-3.7-0.3-4.2-0.5
		C65,78.2,64.3,77,64,75.7C65.2,75.7,66.9,75.6,68.6,74.9z"/>
	<circle cx="67.5" cy="62.5" r="1.9"/>
	<path d="M80,67.7c0.1,0,0.2,0.1,0.4,0.1c0.5,0,1-0.4,1.2-0.9c0.3-1.1,0.6-2.6,0.6-2.6c0.1-0.7-0.3-1.3-1-1.4
		c-0.7-0.1-1.3,0.3-1.4,1c0,0-0.2,1.4-0.5,2.4C79,66.8,79.3,67.5,80,67.7z"/>
	<path d="M21.7,67.2c-0.1,0-0.2,0.1-0.4,0.1c-0.5,0-1-0.4-1.2-0.9c-0.3-1.1-0.6-2.6-0.6-2.6c-0.1-0.7,0.3-1.3,1-1.4
		c0.7-0.1,1.3,0.3,1.4,1c0,0,0.2,1.4,0.5,2.4C22.8,66.3,22.4,67,21.7,67.2z"/>
</g>
<path d="M53.6,39.3h7.1c5.1,0,9.3-4.1,9.3-9.3v-7.5c0-5.1-4.1-9.2-9.3-9.2H37.2c-5.1,0-9.2,4.1-9.2,9.2V30c0,5.1,4.1,9.3,9.2,9.3
	h5.4c-0.2,1.9-0.6,5.1-0.8,6.8c-0.1,0.4,0.1,0.7,0.3,1c0.2,0.3,0.6,0.4,0.9,0.4c0,0,0,0,0,0C43.1,47.5,50.6,47.1,53.6,39.3z
	 M44.5,44.8c0.4-2.7,0.7-6.4,0.7-6.6c0-0.4-0.1-0.7-0.3-1c-0.2-0.3-0.6-0.4-0.9-0.4h-6.8c-3.7,0-6.8-3-6.8-6.8v-7.5
	c0-3.7,3-6.8,6.8-6.8h23.5c3.7,0,6.8,3,6.8,6.8V30c0,3.7-3,6.8-6.8,6.8h-8c-0.5,0-1,0.4-1.2,0.9C49.9,42.6,46.5,44.2,44.5,44.8z"/>
<path d="M61.9,30.2c0-0.7-0.6-1.2-1.2-1.2H37.5c-0.7,0-1.2,0.6-1.2,1.2s0.6,1.2,1.2,1.2h23.1C61.3,31.4,61.9,30.9,61.9,30.2z"/>
<path d="M37.5,24.4h16.3c0.7,0,1.2-0.6,1.2-1.2c0-0.7-0.6-1.2-1.2-1.2H37.5c-0.7,0-1.2,0.6-1.2,1.2C36.2,23.8,36.8,24.4,37.5,24.4z"
	/>
</svg>
