<?xml version="1.0" encoding="utf-8"?>
<!-- Generator: Adobe Illustrator 22.1.0, SVG Export Plug-In . SVG Version: 6.00 Build 0)  -->
<svg version="1.1" id="Layer_1" xmlns="http://www.w3.org/2000/svg" xmlns:xlink="http://www.w3.org/1999/xlink" x="0px" y="0px"
	 viewBox="0 0 100 100" style="enable-background:new 0 0 100 100;" xml:space="preserve">
<g>
	<path d="M34.2,30.4h-13c-0.7,0-1.2,0.6-1.2,1.2v25.8c0,0.7,0.6,1.2,1.2,1.2h13c0.7,0,1.2-0.6,1.2-1.2V31.7
		C35.4,31,34.9,30.4,34.2,30.4z M32.9,56.2H22.4V32.9h10.5V56.2z"/>
	<polygon points="66,31.7 66,30.4 40.1,30.4 40.1,31.7 40.1,32.9 66,32.9 	"/>
	<polygon points="74.6,37.2 74.6,35.9 40.1,35.9 40.1,37.2 40.1,38.4 74.6,38.4 	"/>
	<rect x="48.3" y="56.3" width="7.4" height="2.5"/>
	<path d="M42.9,52.3h-2.5v5.2c0,0.7,0.6,1.2,1.2,1.2h3.2v-2.5h-2L42.9,52.3L42.9,52.3z"/>
	<path d="M40.4,44.3v5.2h2.5v-4h2V43h-3.2C40.9,43.1,40.4,43.6,40.4,44.3z"/>
	<rect x="59.1" y="43.1" width="7.4" height="2.5"/>
	<rect x="48.3" y="43.1" width="7.4" height="2.5"/>
	<path d="M73.1,43.1h-3.2v2.5h2v2h2.5v-3.2C74.4,43.6,73.8,43.1,73.1,43.1z"/>
	<path d="M90.6,69.5c0-0.4-0.2-0.8-0.5-1.1L86.9,66V51.7c0-0.7-0.6-1.2-1.2-1.2h-3.2V24.7V18c0-0.7-0.6-1.2-1.2-1.2H14.7
		c-0.7,0-1.2,0.6-1.2,1.2v6.7V64c0,0.7,0.6,1.2,1.2,1.2h32V72H28.9c-0.7,0-1.2,0.6-1.2,1.2v6c0,0.7,0.6,1.2,1.2,1.2h37.9
		c0.7,0,1.2-0.6,1.2-1.2v-6c0-0.7-0.6-1.2-1.2-1.2H49.1v-6.8h16.6v3.4c0,0.7,0.6,1.2,1.2,1.2h10.9l0.4,5.7c0,0.4,0.3,0.8,0.7,1
		c0.2,0.1,0.4,0.1,0.6,0.1s0.5-0.1,0.7-0.2l3.9-2.4l3.7,6.6c0.2,0.4,0.7,0.6,1.1,0.6c0.2,0,0.4-0.1,0.6-0.2c0.6-0.3,0.8-1.1,0.5-1.7
		l-3.8-6.7l3.7-2.3C90.3,70.3,90.6,69.9,90.6,69.5z M84.1,71.2C84,71.2,84,71.2,84.1,71.2c-0.1,0.1-0.2,0.1-0.2,0.1l-3.2,1.9
		l-0.2-3.4l-0.1-1.2l-0.1-1.2l-0.2-2.1L80,64.1l1.4,1.1l2.9,2.1l1.2,0.9l1.1,0.9l0.4,0.3L84.1,71.2z M68.2,67.3v-2.1V64v-1.2V53
		h11.7h1.2h1.2h1.9v11.3l-1.9-1.4L81.1,62l-1.2-0.9l-0.6-0.4c-0.4-0.3-0.9-0.3-1.3-0.1s-0.7,0.7-0.6,1.2l0.1,1.2l0.1,1.2l0.1,1.2
		l0.2,2.1h-9.7V67.3z M15.9,19.2h64v4.2h-64C15.9,23.4,15.9,19.2,15.9,19.2z M15.9,25.9h64v24.5h-5.5v-1.2h-2.5v1.2H67
		c-0.7,0-1.2,0.6-1.2,1.2v4.6h-6.7v2.5h6.7v3.9H15.9V25.9z M65.6,78H30.2v-3.5h35.4C65.6,74.5,65.6,78,65.6,78z"/>
</g>
</svg>
