<?xml version="1.0" encoding="utf-8"?>
<!-- Generator: Adobe Illustrator 22.1.0, SVG Export Plug-In . SVG Version: 6.00 Build 0)  -->
<svg version="1.1" id="Layer_1" xmlns="http://www.w3.org/2000/svg" xmlns:xlink="http://www.w3.org/1999/xlink" x="0px" y="0px"
	 viewBox="0 0 700 700" style="enable-background:new 0 0 700 700;" xml:space="preserve">
<style type="text/css">
	.st0{fill:#FFD663;}
	.st1{fill:#994C07;}
	.st2{fill:#707070;}
</style>
<g>
	<g>
		<path class="st0" d="M422.4,575.6c-2.2,0-4.5,0-7.1-0.1c-14.5-0.5-28.8-4.3-42.5-11.4c-13.3-6.9-24.6-16-36.5-25.7l-3.3-2.7
			c-14.1-11.5-28-23.7-41.4-35.6c-6.2-5.5-12.7-11.2-19.1-16.8c-10.1-8.8-23.3-20.4-36-32.7c-8.5-8.2-17.5-16.3-26.1-24
			c-5.5-4.9-11.1-10-16.6-15l-1-1c-7-6.5-14.2-13.2-20.2-20.7c-5.3-6.7-8.7-14.1-10.1-22c-1.1-6.4,1.4-11.9,8.9-19
			c3.5-3.3,9.9-5.3,17.2-5.3c6.4,0,12.5,1.5,16.4,4c12,7.6,22,17,32.6,26.9c1.5,1.4,3.1,2.9,4.6,4.3c10.3,9.6,21.1,19.2,31.4,28.4
			c4.5,4,8.9,8,13.4,11.9l0.1,0.1c0.5,0.5,1.1,1,1.8,1.4l0.2,0.1c0.8,0.5,2,1.3,3.5,1.3c1.2,0,2.4-0.5,3.3-1.5
			c1.1-1.2,1.3-2.5,1.2-3.3c-0.2-1.8-1.5-2.8-2.2-3.4c-0.1-0.1-0.2-0.1-0.3-0.2c-7.8-7.9-14.4-14.5-21.1-21.2
			c-9.8-9.7-19.5-19.9-28.9-29.8c-4-4.2-7.9-8.3-11.9-12.5c-4.2-4.4-8.5-8.8-12.7-13.2c-8-8.2-16.2-16.7-24.2-25.2
			c-3.9-4.1-8.1-8.2-12.1-12c-8.8-8.5-17.9-17.3-24.5-27.8c-8.6-13.9-9.7-25.2-3.5-35.8c4.5-7.6,13.9-12.8,23.3-12.8
			c2.6,0,5.1,0.4,7.4,1.1c12.3,3.9,21.5,11.7,31.6,22.2c11,11.5,22.1,23.2,32.8,34.6l5.6,5.9c9,9.6,18.2,19.4,27,28.9
			c6.3,6.8,12.6,13.5,18.9,20.2c4,4.3,8.3,8.6,12.6,12.9c1.7,1.7,3.6,3.2,6,3.2c1.4,0,2.7-0.5,3.8-1.6c2.6-2.5,2.3-5.5-0.9-9
			c-0.2-0.2-0.4-0.4-0.6-0.6c-6.3-7.1-12.5-14.1-18.8-21.2c-12.1-13.7-24.7-27.9-36.9-41.9l-6.4-7.4c-13.5-15.6-27.6-31.6-41.8-47.1
			c-1.2-1.3-2.4-2.7-3.7-4c-6.7-7.3-13.7-14.9-20-22.7c-9.3-11.6-14-22.4-14.9-34.2c-0.6-7.9,3-13.6,6.2-17
			c5.4-5.9,13.7-9.5,21.5-9.5c0.9,0,1.8,0,2.6,0.1c10.8,1.2,18.3,7.3,26.4,14.7c6.1,5.6,11.5,12.2,16.6,18.6
			c2.2,2.7,4.4,5.5,6.7,8.1c7.9,9.3,15.8,18.7,23.5,27.9c10,11.8,20.3,24.1,30.5,36c11.7,13.7,23.9,27.4,35.7,40.7l3.4,3.9
			c3.5,3.9,7.2,6.5,11.2,8c0.3,0.1,0.7,0.2,1,0.2c0.8,0,1.6-0.3,2.2-0.9c0.8-0.8,1.1-2.1,0.6-3.2c-2.7-6.9-7.1-12.4-11.4-17.6
			c-2-2.4-3.8-4.7-5.5-7.1c-3.4-4.8-7-9.4-10.6-13.9c-1.7-2.1-3.3-4.2-4.9-6.3c-2.6-3.4-5.3-6.9-7.9-10.3
			c-6.5-8.4-13.1-17-19.6-25.6c-3-4-6.1-8-9.1-12c-9-11.7-18.3-23.8-26.5-36.3c-6.3-9.5-8.7-18.7-7.3-27.5
			c1.7-9.9,13.9-22.8,24.6-22.8c0.2,0,0.3,0,0.5,0c9.5,0.4,17.4,3.8,25.6,11.3c12.4,11.2,22.3,24.9,30.7,36.9c4.9,7,10,13.9,15,20.6
			c4.8,6.4,9.7,13,14.4,19.6c3.6,5.2,7.5,10.3,11.3,15.2c4.4,5.8,9,11.9,13.2,18c3.8,5.6,8.2,10.8,12.4,15.8
			c2.6,3.1,5.4,6.4,7.9,9.6c10,12.9,18.9,23.2,30,31.4c5.7,4.2,11.8,6.5,17.6,6.5c11.1,0,20.4-8,24.8-21.5c2.9-8.8,3-17.2,2.9-26.5
			c-0.2-9.9,3.9-18.8,7.4-25.5c7-13.2,18-23.3,32.7-30.1c6.4-3,12.8-4.5,18.9-4.5c9,0,17.8,3.2,26.3,9.5c6.1,4.5,8.3,8.4,7.5,12.9
			c-0.6,3.4-2.3,6.9-3.8,9.8c-0.9,1.7-1.7,3.3-2.6,5c-6.5,12.6-13.2,25.6-17.4,39.4c-0.4,1.2-0.7,2.4-1.1,3.5
			c-4.8,15.8-9.7,32.1-5.7,49.2c0.6,2.7,1,5.4,1.4,8.3c0.8,5.2,1.5,10.6,3.8,15.8c-0.4,5.9,0.7,11.6,1.8,17.1
			c0.9,4.7,1.7,9.2,1.7,13.7c0,8.2,0.9,16.3,1.9,24.2c1,8.6,2.1,17.6,1.8,26.4l-0.1,1.6c-0.5,13.4-0.9,26.1-5.2,38.7
			c-5.4,16.1-14.5,31.5-27.7,47.2c-9,10.7-19.7,20.2-28.9,28.2c-9.2,7.9-20.2,15.3-33.6,22.6c-3.9,2.1-8.3,3.8-12.5,5.5
			c-2.6,1-5.2,2-7.8,3.2C446.5,573.8,436.2,575.6,422.4,575.6z"/>
		<path class="st1" d="M290.6,114c0.1,0,0.3,0,0.4,0c8.7,0.3,16,3.6,23.7,10.5c12.1,11,22,24.6,30.2,36.4c4.9,7,10.1,13.9,15.1,20.6
			c4.8,6.4,9.7,13,14.3,19.6c3.7,5.2,7.6,10.4,11.4,15.3c4.4,5.8,9,11.8,13.1,17.9c3.9,5.7,8.3,11,12.6,16c2.6,3.1,5.3,6.3,7.8,9.5
			c10.1,13.1,19.2,23.5,30.6,32c6.2,4.6,12.9,7.1,19.4,7.1c12.5,0,22.8-8.8,27.7-23.5c3.1-9.2,3.2-17.9,3-27.5
			c-0.1-9.2,3.7-17.7,7.1-24c6.7-12.6,17.2-22.3,31.3-28.8c6-2.8,11.9-4.2,17.6-4.2c8.3,0,16.6,3,24.5,8.9c5.1,3.8,6.9,6.7,6.3,9.9
			c-0.6,3-2.1,6.3-3.5,9c-0.9,1.7-1.7,3.3-2.6,5c-6.6,12.7-13.4,25.8-17.6,39.9c-0.4,1.2-0.7,2.4-1.1,3.5
			c-4.9,16.1-10,32.8-5.8,50.8c0.6,2.6,1,5.2,1.4,8.1c0.7,5.2,1.5,10.6,3.8,15.9c-0.3,6,0.8,11.7,1.8,17.2c0.9,4.6,1.7,8.9,1.7,13.1
			c0,8.4,0.9,16.6,1.9,24.5c1.1,8.9,2.1,17.3,1.8,25.9l-0.1,1.5c-0.5,13.2-0.9,25.7-5,37.9c-5.3,15.8-14.2,30.9-27.1,46.2
			c-8.9,10.5-19,19.6-28.6,27.8c-9.1,7.8-19.9,15.1-33.1,22.3c-3.8,2-7.8,3.6-12.2,5.3c-2.6,1-5.3,2.1-7.9,3.2
			c-8.9,4-18.9,5.7-32.2,5.7c-2.1,0-4.4,0-7-0.1c-14.1-0.5-27.9-4.2-41.2-11c-13-6.7-24.2-15.8-36-25.4c-1.1-0.9-2.2-1.8-3.3-2.7
			c-14.1-11.4-27.9-23.7-41.3-35.5c-6.2-5.5-12.7-11.2-19.1-16.8c-10.1-8.8-23.3-20.4-35.9-32.6c-8.6-8.3-17.5-16.3-26.2-24.1
			c-5.4-4.9-11.1-9.9-16.5-15l-1-1c-7.2-6.7-14.1-13-19.9-20.4c-5-6.3-8.2-13.3-9.5-20.7c-0.9-5.3,1.4-10,8-16.3
			c3-2.8,8.6-4.5,15.2-4.5c5.7,0,11.4,1.3,14.8,3.5c11.8,7.4,21.7,16.7,32.1,26.5c1.5,1.4,3.1,2.9,4.6,4.3
			c10.4,9.6,21.1,19.2,31.5,28.4c4.4,3.9,8.9,7.9,13.4,11.9l0.1,0.1c0.6,0.5,1.3,1.1,2.2,1.7l0.2,0.1c1,0.6,2.7,1.8,5.2,1.8
			c2.1,0,4.1-0.9,5.5-2.5c1.4-1.6,2.1-3.6,1.9-5.5c-0.3-3.1-2.5-4.8-3.3-5.5c0,0-0.1,0-0.1-0.1c-6.3-6.4-13.7-13.7-21.1-21.1
			c-9.8-9.7-19.5-19.9-28.8-29.7c-3.9-4.1-7.9-8.3-11.9-12.5c-4.2-4.4-8.6-8.9-12.8-13.2c-8-8.2-16.2-16.7-24.1-25.2
			c-3.9-4.2-8.1-8.2-12.2-12.1c-9.1-8.8-17.7-17.1-24-27.2c-8.1-13-9.1-23-3.4-32.6c4-6.8,12.3-11.3,20.7-11.3c2.3,0,4.5,0.3,6.5,1
			c11.7,3.7,20.6,11.2,30.4,21.4c11,11.5,22.1,23.2,32.8,34.6l5.5,5.9c9.1,9.6,18.2,19.4,27,28.9c6.2,6.6,12.6,13.5,18.9,20.2
			c4.1,4.4,8.3,8.6,12.7,13c1.3,1.3,4.1,4.1,8.1,4.1c2.2,0,4.2-0.8,5.9-2.4c1.8-1.8,5.5-6.6-0.8-13.2c-0.2-0.2-0.3-0.3-0.5-0.5
			c-6.2-7.1-12.5-14.1-18.8-21.2c-12.1-13.7-24.7-27.9-36.9-41.9c-2.2-2.5-4.3-4.9-6.4-7.4c-13.6-15.6-27.6-31.6-41.8-47.2
			c-1.2-1.3-2.4-2.6-3.7-4c-6.7-7.3-13.6-14.8-19.9-22.6c-8.9-11.1-13.4-21.4-14.3-32.6c-0.5-6.8,2.7-11.8,5.4-14.7
			c4.9-5.3,12.3-8.5,19.3-8.5c0.8,0,1.5,0,2.3,0.1c9.9,1.1,16.7,6.7,24.7,13.9c6,5.4,11,11.7,16.3,18.3c2.2,2.7,4.4,5.5,6.7,8.2
			c7.9,9.3,15.8,18.7,23.5,27.9c10,11.8,20.3,24.1,30.5,36.1c11.8,13.7,24,27.5,35.8,40.7l3.4,3.8c3.8,4.3,7.9,7.2,12.4,8.8
			c0.7,0.2,1.3,0.3,2,0.3c1.6,0,3.2-0.6,4.3-1.8c1.6-1.7,2.1-4.2,1.3-6.3c-2.8-7.3-7.4-13-11.9-18.4c-1.9-2.4-3.7-4.6-5.4-6.9
			c-3.4-4.8-7.1-9.5-10.7-14.1c-1.6-2.1-3.3-4.2-4.9-6.3c-2.6-3.4-5.3-6.9-7.9-10.3c-6.5-8.4-13.1-17-19.6-25.6c-3-4-6.2-8.1-9.2-12
			c-9-11.7-18.2-23.7-26.4-36.1c-5.9-8.8-8.1-17.4-6.8-25.4C270.5,125.6,281.4,114,290.6,114 M290.6,108
			c-12.7,0-25.7,14.3-27.5,25.3c-1.8,11,2.1,21.2,7.7,29.7c11.1,16.7,23.7,32.4,35.8,48.4c9.1,12,18.4,23.9,27.6,35.9
			c5.2,6.7,10.6,13.2,15.4,20.1c5.6,7.9,12.9,14.7,16.5,24.1c-4.1-1.4-7.3-4.1-10-7.1c-13.1-14.8-26.3-29.5-39.1-44.5
			c-18.1-21.2-36-42.7-54-63.9c-7.7-9.1-14.7-18.9-23.6-27c-8.1-7.4-16.2-14.1-28.1-15.4c-1-0.1-2-0.2-2.9-0.2
			c-15.2,0-32,12.3-30.7,29.7c1,13.9,7.2,25.5,15.6,35.9c7.5,9.3,15.7,18,23.8,26.8c16.4,17.9,32.2,36.2,48.1,54.4
			c18.4,21.2,37.2,42.1,55.7,63.1c1.4,1.6,3.8,3.4,1.7,5.4c-0.6,0.5-1.1,0.7-1.7,0.7c-1.4,0-2.8-1.3-3.9-2.4
			c-4.2-4.2-8.4-8.5-12.5-12.8c-15.3-16.4-30.5-32.8-45.9-49.1c-12.8-13.5-25.5-27.1-38.4-40.5c-9.6-10-19.4-18.8-32.9-23
			c-2.7-0.9-5.5-1.3-8.3-1.3c-10.4,0-20.7,5.6-25.8,14.2c-8.1,13.6-4.1,26.8,3.5,38.9c9.7,15.6,24.4,27,36.9,40.3
			c12.1,12.9,24.6,25.6,36.9,38.4c13.6,14.1,26.9,28.5,40.9,42.3c7.1,7,14.1,14.1,21.1,21.2c0.7,0.7,2.4,1.4,1.2,2.7
			c-0.3,0.4-0.7,0.5-1.1,0.5c-0.7,0-1.4-0.5-2.1-1c-0.6-0.4-1.1-0.8-1.5-1.3c-14.9-13.4-30.1-26.6-44.8-40.3
			c-12-11.2-23.6-22.6-37.6-31.5c-4.5-2.8-11.3-4.4-18-4.4c-7.4,0-14.8,1.9-19.3,6.2c-6.3,6-11.4,12.8-9.8,21.7
			c1.5,8.5,5.3,16.4,10.7,23.3c6.4,8.1,14,15.1,21.6,22c14.1,13.1,28.8,25.6,42.6,39c11.7,11.3,23.9,22.2,36.1,32.8
			c20.2,17.5,39.8,35.6,60.6,52.5c12.9,10.4,25.5,21.1,40.3,28.8c13.8,7.1,28.3,11.2,43.7,11.7c2.4,0.1,4.8,0.1,7.2,0.1
			c11.8,0,23.4-1.2,34.6-6.2c6.8-3,14-5.2,20.5-8.8c12.1-6.6,23.7-14,34.2-23c10.4-8.9,20.5-18.1,29.3-28.5
			c12.1-14.4,22.1-30,28.2-48.2c4.6-13.6,4.9-27.2,5.4-41.1c0.6-17-3.7-33.7-3.6-50.6c0-10.5-4.2-20.5-3.5-31c0-0.3-0.1-0.7-0.2-1
			c-3.4-7.5-3.3-15.8-5.1-23.7c-4.1-17.6,1.7-34.6,6.7-51.2c4.6-15.4,12.4-29.6,19.8-43.9c1.7-3.4,3.4-7,4.1-10.7
			c1.4-7.3-3.9-12.3-8.6-15.8c-8.9-6.6-18.3-10.1-28.1-10.1c-6.5,0-13.3,1.5-20.2,4.7c-14.8,6.9-26.5,17.2-34.1,31.5
			c-4.4,8.3-7.9,17.1-7.8,26.9c0.1,8.6,0.1,17-2.7,25.5c-4.2,12.6-12.5,19.4-22,19.4c-5.1,0-10.5-1.9-15.8-5.9
			c-11.4-8.5-20.7-19.6-29.4-30.9c-6.6-8.5-14.2-16.4-20.2-25.2c-7.8-11.4-16.6-22-24.5-33.3c-9.5-13.6-19.9-26.6-29.4-40.2
			c-9.3-13.4-19.1-26.4-31.1-37.4c-7.6-6.9-16.1-11.6-27.5-12.1C291.1,108,290.8,108,290.6,108L290.6,108z"/>
	</g>
	<path class="st2" d="M467.6,204.5c-10.2,3.1-11.3-6.1-13.9-13c-4.5-11.7-9.7-23.1-15.8-34.1c-8.1-14.5-18-27.4-29-39.6
		c-6.3-6.9-14-12.2-21.4-17.8c-3.7-2.8-5.8-5.5-2.2-9.8c0.4-0.5,0.6-1.2,0.9-1.8c3.7-10.4,6.1-8.5,13-3.3
		c15.5,11.7,30,24.7,41.3,40.7c10.2,14.5,20.1,29.1,26.3,45.9c3,8,6.6,15.8,10.3,23.6c3.4,7.2,2.4,9.1-5.7,9.2
		C470.5,204.5,469.7,204.5,467.6,204.5z"/>
	<path class="st2" d="M191.7,518c-3.6-0.2-6.7-2.2-9.5-4c-12.1-7.5-24.5-14.5-35.2-24.1c-15.6-13.9-29.1-29.5-40.7-46.8
		c-5.8-8.7-11.1-17.6-16.1-26.7c-2-3.7-1.2-6.2,3-6.7c3.2-0.4,6.1-1,9.1-2.3c4.7-2.2,6.9,1.8,8.5,4.9c6.7,13,14.3,25.4,23.6,36.7
		c11.4,13.8,23.7,26.7,38.6,37.1c7.1,5,14.5,9.1,22.2,12.9c2.7,1.4,5.2,3.7,3.1,7.6c-1.1,2.1-1.2,4.5-1.2,6.8
		C197,516.9,194.8,517.9,191.7,518z"/>
	<path class="st2" d="M216.2,473.1c-0.2,1.3-0.1,3-0.6,4.5c-1.5,4.7-4.8,6.3-8.8,4.2c-18.5-9.6-35.6-21-49.2-37.2
		c-11.5-13.6-20.9-28.5-29.2-44.1c-1.9-3.7,1.3-5,3.5-5.7c2.9-1,6.2-1.1,9.3-1.1c2.4-0.1,4.2,1.3,5.5,3.6c4.9,8.4,9.5,17.2,15.3,25
		c10.1,13.6,21.5,26,36.1,35.2c5,3.2,10,6.4,15.5,8.9C216.6,467.8,215.9,470.4,216.2,473.1z"/>
	<path class="st2" d="M427.9,213.5c-6.4,0-8.1-2-10.2-8.4c-4-12.3-9.5-24-16.2-35c-6.2-10-13.2-19.4-21.6-27.7c-4-4-8-7.9-13-10.8
		c-6.9-4-7.6-10.4-1.9-15.9c2.3-2.2,5-2.1,7.7-0.2c17.2,12,31.7,26.6,42.8,44.5c6.6,10.6,12,21.7,16.2,33.5c1.3,3.5,3,6.9,4.3,10.5
		c2.4,6.8,0.9,9.4-6.6,9.6C428.9,213.5,428.4,213.4,427.9,213.5z"/>
</g>
</svg>
