<?xml version="1.0" encoding="utf-8"?>
<!-- Generator: Adobe Illustrator 24.1.0, SVG Export Plug-In . SVG Version: 6.00 Build 0)  -->
<svg version="1.1" id="Layer_1" xmlns="http://www.w3.org/2000/svg" xmlns:xlink="http://www.w3.org/1999/xlink" x="0px" y="0px"
	 viewBox="0 0 700 700" style="enable-background:new 0 0 700 700;" xml:space="preserve">
<style type="text/css">
	.st0{fill:#29A3A6;}
	.st1{fill:#FFC446;}
	.st2{fill:#F15A24;}
	.st3{fill:#2D3F48;}
</style>
<g>
	<path class="st0" d="M393.1,456.7c27.3,16.6,62.9,7.9,79.6-19.4l164-269.8c16.6-27.3,7.9-62.9-19.4-79.6s-62.9-7.9-79.6,19.4
		l-164,269.8C357,404.4,365.7,440.1,393.1,456.7z"/>
	<path class="st1" d="M229.1,456.7c27.3,16.6,62.9,7.9,79.6-19.4l164-269.8c16.6-27.3,7.9-62.9-19.4-79.6s-62.9-7.9-79.6,19.4
		l-164,269.8C193,404.4,201.7,440.1,229.1,456.7z"/>
	<path class="st2" d="M65.1,456.7c27.3,16.6,62.9,7.9,79.6-19.4l164-269.8c16.6-27.3,7.9-62.9-19.4-79.6s-62.9-7.9-79.6,19.4
		l-164,269.8C29.1,404.4,37.8,440.1,65.1,456.7z"/>
	<path class="st3" d="M259.1,465.1c32,0,57.9-25.9,57.9-57.9V137.3c0-32-25.9-57.9-57.9-57.9s-57.9,25.9-57.9,57.9v269.9
		C201.2,439.2,227.1,465.1,259.1,465.1z"/>
	<path class="st3" d="M587.1,611.3c32,0,57.9-25.9,57.9-57.9V137.3c0-32-25.9-57.9-57.9-57.9s-57.9,25.9-57.9,57.9v416.1
		C529.2,585.4,555.1,611.3,587.1,611.3z"/>
	<path class="st3" d="M423.1,465.1c32,0,57.9-25.9,57.9-57.9V137.3c0-32-25.9-57.9-57.9-57.9s-57.9,25.9-57.9,57.9v269.9
		C365.2,439.2,391.1,465.1,423.1,465.1z"/>
</g>
</svg>
