<?xml version="1.0" encoding="utf-8"?>
<!-- Generator: Adobe Illustrator 22.1.0, SVG Export Plug-In . SVG Version: 6.00 Build 0)  -->
<svg version="1.1" id="Layer_1" xmlns="http://www.w3.org/2000/svg" xmlns:xlink="http://www.w3.org/1999/xlink" x="0px" y="0px"
	 viewBox="0 0 700 700" style="enable-background:new 0 0 700 700;" xml:space="preserve">
<style type="text/css">
	.st0{fill:#2D3F48;}
	.st1{fill:#E6E6E6;}
	.st2{fill:#FFFFFF;}
</style>
<circle class="st0" cx="344" cy="340.6" r="300.9"/>
<path class="st1" d="M165.3,475.3c-14.9,0-27-12.1-27-27V228.1c0-14.9,12.1-27,27-27c14.9,0,27,12.1,27,27v220.2
	C192.3,463.2,180.2,475.3,165.3,475.3z"/>
<path class="st1" d="M269.1,359c-14.9,0-27-12.1-27-27V228.1c0-14.9,12.1-27,27-27c14.9,0,27,12.1,27,27V332
	C296.2,346.9,284.1,359,269.1,359z"/>
<path class="st1" d="M373,475.3c-14.9,0-27-12.1-27-27V228.1c0-14.9,12.1-27,27-27c14.9,0,27,12.1,27,27v220.2
	C400,463.2,387.9,475.3,373,475.3z"/>
<path class="st2" d="M558.3,442.5l-64.1-90.1c21.2-6.6,38-19.3,48.1-36.9c12.9-22.4,12.9-49.2-0.1-71.6c-15.5-26.7-46.1-42-84.2-42
	c-0.1,0-0.2,0-0.3,0c-11.5,0-20.8,9.3-20.7,20.8c0,11.5,9.3,20.7,20.8,20.7c0.1,0,0.2,0,0.2,0c17.4,0,31.6,4.4,41.1,12.6
	c7.3,6.3,11.3,14.7,11.3,23.6c0,18.1-16.2,36.4-52.4,36.5c-4.5,0-8.7,1.5-12.1,3.9c0,0-0.1,0-0.1,0.1c-0.2,0.2-0.4,0.4-0.6,0.5
	c-0.7,0.6-1.5,1.2-2.1,1.9c-0.7,0.7-1.3,1.5-1.9,2.3c-0.2,0.2-0.3,0.4-0.5,0.6c-4.7,7-4.9,16.4,0.2,23.7l83.6,117.5
	c4,5.7,10.4,8.7,16.9,8.7c4.2,0,8.4-1.2,12-3.8C562.7,464.8,564.9,451.9,558.3,442.5z"/>
</svg>
