<?xml version="1.0" encoding="utf-8"?>
<!-- Generator: Adobe Illustrator 22.1.0, SVG Export Plug-In . SVG Version: 6.00 Build 0)  -->
<svg version="1.1" id="Layer_1" xmlns="http://www.w3.org/2000/svg" xmlns:xlink="http://www.w3.org/1999/xlink" x="0px" y="0px"
	 viewBox="0 0 100 100" style="enable-background:new 0 0 100 100;" xml:space="preserve">
<g>
	<path d="M81.5,68c-0.5-0.5-1.3-0.5-1.8,0l-3.6,3.6L72.6,68c-0.5-0.5-1.3-0.5-1.8,0s-0.5,1.3,0,1.8l3.6,3.6L70.8,77
		c-0.5,0.5-0.5,1.3,0,1.8c0.2,0.2,0.6,0.4,0.9,0.4s0.6-0.1,0.9-0.4l3.6-3.6l3.6,3.6c0.2,0.2,0.6,0.4,0.9,0.4s0.6-0.1,0.9-0.4
		c0.5-0.5,0.5-1.3,0-1.8L78,73.3l3.6-3.6C82,69.3,82,68.5,81.5,68z"/>
	<path d="M44.8,58.1c-0.5-0.5-1.3-0.5-1.8,0l-3.6,3.6l-3.6-3.6c-0.5-0.5-1.3-0.5-1.8,0s-0.5,1.3,0,1.8l3.6,3.6L34.2,67
		c-0.5,0.5-0.5,1.3,0,1.8c0.2,0.2,0.6,0.4,0.9,0.4c0.3,0,0.6-0.1,0.9-0.4l3.6-3.6l3.6,3.6c0.2,0.2,0.6,0.4,0.9,0.4s0.6-0.1,0.9-0.4
		c0.5-0.5,0.5-1.3,0-1.8l-3.6-3.6l3.6-3.6C45.3,59.3,45.3,58.6,44.8,58.1z"/>
	<path d="M17.2,45c0.2,0.2,0.6,0.4,0.9,0.4s0.6-0.1,0.9-0.4l3.6-3.6l3.6,3.6c0.2,0.2,0.6,0.4,0.9,0.4s0.6-0.1,0.9-0.4
		c0.5-0.5,0.5-1.3,0-1.8l-3.6-3.6L28,36c0.5-0.5,0.5-1.3,0-1.8s-1.3-0.5-1.8,0l-3.6,3.6L19,34.3c-0.5-0.5-1.3-0.5-1.8,0
		s-0.5,1.3,0,1.8l3.6,3.6l-3.6,3.6C16.7,43.7,16.7,44.5,17.2,45z"/>
	<path d="M30.7,28.2c0.2,0.2,0.6,0.4,0.9,0.4s0.6-0.1,0.9-0.4l3.6-3.6l3.6,3.6c0.2,0.2,0.6,0.4,0.9,0.4c0.3,0,0.6-0.1,0.9-0.4
		c0.5-0.5,0.5-1.3,0-1.8l-3.6-3.6l3.6-3.6c0.5-0.5,0.5-1.3,0-1.8s-1.3-0.5-1.8,0L36,21.1l-3.6-3.6c-0.5-0.5-1.3-0.5-1.8,0
		s-0.5,1.3,0,1.8l3.6,3.6l-3.6,3.6C30.2,27,30.2,27.8,30.7,28.2z"/>
	<path d="M61.6,70c-0.5-0.5-1.3-0.5-1.8,0l-3.6,3.6L52.7,70c-0.5-0.5-1.3-0.5-1.8,0s-0.5,1.3,0,1.8l3.6,3.6L50.9,79
		c-0.5,0.5-0.5,1.3,0,1.8c0.2,0.2,0.6,0.4,0.9,0.4c0.3,0,0.6-0.1,0.9-0.4l3.6-3.6l3.6,3.6c0.2,0.2,0.6,0.4,0.9,0.4
		c0.3,0,0.6-0.1,0.9-0.4c0.5-0.5,0.5-1.3,0-1.8L58,75.3l3.6-3.6C62.1,71.3,62.1,70.5,61.6,70z"/>
	<path d="M49.8,43.4h17.9l-6.8,5.7c-0.5,0.4-0.6,1.2-0.2,1.8c0.2,0.3,0.6,0.4,1,0.4c0.3,0,0.6-0.1,0.8-0.3l9.4-7.9
		c0.3-0.2,0.4-0.6,0.4-1l0,0l0,0l0,0c0-0.1,0-0.3-0.1-0.4c0-0.1-0.1-0.1-0.1-0.2c0-0.1-0.1-0.1-0.1-0.2c0-0.1-0.1-0.1-0.2-0.2l0,0
		l-9.4-7.9c-0.5-0.4-1.3-0.4-1.8,0.2c-0.4,0.5-0.4,1.3,0.2,1.8l6.8,5.7H49.8c-15.6,0-28.3,12.6-28.5,28.2c-3.4,0.4-6,3.3-6,6.9
		c0,3.8,3.1,6.9,6.9,6.9s6.9-3.1,6.9-6.9c0-3.3-2.3-6-5.3-6.7C23.9,54.9,35.6,43.4,49.8,43.4z M22.2,80.3c-2.4,0-4.4-2-4.4-4.4
		c0-2.1,1.5-3.9,3.5-4.3c0.3-0.1,0.6-0.1,0.9-0.1c0.6,0,1.1,0.1,1.6,0.3c1.6,0.6,2.8,2.2,2.8,4.1C26.7,78.3,24.7,80.3,22.2,80.3z"/>
	<path d="M84.7,42.2c0-11.3-9.2-20.5-20.5-20.5c-8.3,0-15.8,5-19,12.7c-0.3,0.6,0,1.4,0.7,1.6c0.6,0.3,1.4,0,1.6-0.7
		c2.8-6.8,9.3-11.1,16.6-11.1c9.9,0,18,8.1,18,18s-8.1,18-18,18c-7.3,0-13.9-4.4-16.6-11.1c-0.3-0.6-1-0.9-1.6-0.7
		c-0.6,0.3-0.9,1-0.7,1.6c3.2,7.7,10.6,12.7,19,12.7C75.5,62.7,84.7,53.5,84.7,42.2z"/>
</g>
</svg>
