<?xml version="1.0" encoding="utf-8"?>
<!-- Generator: Adobe Illustrator 22.1.0, SVG Export Plug-In . SVG Version: 6.00 Build 0)  -->
<svg version="1.1" id="Layer_1" xmlns="http://www.w3.org/2000/svg" xmlns:xlink="http://www.w3.org/1999/xlink" x="0px" y="0px"
	 viewBox="0 0 100 100" style="enable-background:new 0 0 100 100;" xml:space="preserve">
<g>
	<path d="M24.4,77.5h14c0.7,0,1.2-0.6,1.2-1.2V63.6c0-0.7-0.6-1.2-1.2-1.2h-14c-0.7,0-1.2,0.6-1.2,1.2v12.7
		C23.2,77,23.8,77.5,24.4,77.5z M25.7,64.8h11.5V75H25.7V64.8z"/>
	<path d="M74.7,62.3H44.8c-0.7,0-1.2,0.6-1.2,1.2v12.7c0,0.7,0.6,1.2,1.2,1.2h29.9c0.7,0,1.2-0.6,1.2-1.2V63.6
		C75.9,62.9,75.4,62.3,74.7,62.3z M73.4,75H46.1V64.8h27.4L73.4,75L73.4,75z"/>
	<polygon points="75.7,46.9 75.7,45.7 60.9,45.7 60.9,46.9 60.9,48.2 75.7,48.2 	"/>
	<polygon points="75.7,41.3 75.7,40.1 60.9,40.1 60.9,41.3 60.9,42.6 75.7,42.6 	"/>
	<polygon points="75.7,35.7 75.7,34.5 60.9,34.5 60.9,35.7 60.9,37 75.7,37 	"/>
	<polygon points="75.7,30.1 75.7,28.9 60.9,28.9 60.9,30.1 60.9,31.4 75.7,31.4 	"/>
	<polygon points="75.7,52.5 75.7,51.3 60.9,51.3 60.9,52.5 60.9,53.8 75.7,53.8 	"/>
	<polygon points="75.7,58.1 75.7,56.9 60.9,56.9 60.9,58.1 60.9,59.4 75.7,59.4 	"/>
	<path d="M81.2,16.4H18.8c-0.7,0-1.2,0.6-1.2,1.2v6.2v58.4c0,0.7,0.6,1.2,1.2,1.2h62.3c0.7,0,1.2-0.6,1.2-1.2V23.9v-6.2
		C82.4,17,81.9,16.4,81.2,16.4z M79.9,81.1H20.1V25.2h59.8V81.1z M25.7,18.9h54.2v3.7H25.7V18.9z M23.2,22.7h-3.1V19h3.1V22.7z"/>
	<path d="M23.3,58.6c0,0.1,0.1,0.2,0.1,0.2c0,0.1,0.1,0.1,0.1,0.2l0,0c0.1,0.1,0.2,0.2,0.3,0.2c0,0,0,0,0.1,0
		c0.2,0.1,0.3,0.1,0.5,0.1l0,0h30.8l0,0c0.2,0,0.3,0,0.5-0.1c0,0,0,0,0.1,0c0.1-0.1,0.2-0.1,0.3-0.2l0,0c0,0,0.1-0.1,0.1-0.2
		c0.1-0.1,0.1-0.2,0.1-0.2c0-0.1,0-0.2,0.1-0.3c0-0.1,0-0.1,0-0.2v-28c0-0.1,0-0.1,0-0.2s0-0.2-0.1-0.3c0-0.1-0.1-0.2-0.1-0.2
		c0-0.1-0.1-0.1-0.1-0.2l0,0c-0.1-0.1-0.2-0.1-0.2-0.2c-0.1,0-0.1-0.1-0.2-0.1c-0.1,0-0.1,0-0.2,0c-0.1,0-0.2-0.1-0.3-0.1l0,0H24.4
		l0,0c-0.1,0-0.2,0-0.3,0.1c-0.1,0-0.1,0-0.2,0.1c-0.1,0-0.1,0.1-0.2,0.1c-0.1,0.1-0.2,0.1-0.2,0.2l0,0c0,0-0.1,0.1-0.1,0.2
		c-0.1,0.1-0.1,0.2-0.1,0.2c0,0.1,0,0.2-0.1,0.3c0,0.1,0,0.1,0,0.2v28c0,0.1,0,0.1,0,0.2C23.2,58.4,23.3,58.5,23.3,58.6z M52,31.4
		l-12.2,11l-12.1-11H52z M27.7,56.9l12.2-11.1L52,56.9H27.7z M25.7,33L38,44.1L25.7,55.3V33z M54,55.3L41.7,44.1L54,33V55.3z"/>
</g>
</svg>
