<?xml version="1.0" encoding="utf-8"?>
<!-- Generator: Adobe Illustrator 22.1.0, SVG Export Plug-In . SVG Version: 6.00 Build 0)  -->
<svg version="1.1" id="Layer_1" xmlns="http://www.w3.org/2000/svg" xmlns:xlink="http://www.w3.org/1999/xlink" x="0px" y="0px"
	 viewBox="0 0 100 100" style="enable-background:new 0 0 100 100;" xml:space="preserve">
<rect x="30.6" y="21.3" width="2.2" height="2.2"/>
<rect x="35.1" y="21.3" width="2.2" height="2.2"/>
<rect x="39.6" y="21.3" width="2.2" height="2.2"/>
<path d="M18.3,83.9H53c0.6,0,1.1-0.5,1.1-1.1c0-0.3-0.1-0.6-0.3-0.8L19.1,47.3c-0.4-0.4-1.1-0.4-1.6,0c-0.2,0.2-0.3,0.5-0.3,0.8
	v34.7C17.2,83.4,17.7,83.9,18.3,83.9z M19.5,50.8l30.8,30.8H19.5V50.8z"/>
<path d="M37,75.3L25.8,64.1c-0.4-0.4-1.1-0.4-1.6,0c-0.2,0.2-0.3,0.5-0.3,0.8V76c0,0.6,0.5,1.1,1.1,1.1h11.2c0.6,0,1.1-0.5,1.1-1.1
	C37.4,75.7,37.2,75.5,37,75.3z M26.2,74.9v-7.4l7.4,7.4H26.2z"/>
<path d="M83.1,26.3c1.7-1.7,1.7-4.4,0-6.1c-1.7-1.7-4.4-1.7-6.1,0L75.3,22c-0.2-2.9-2.6-5.2-5.6-5.2h-38c-3.1,0-5.6,2.5-5.6,5.6
	v29.1h2.2V22.4c0-1.9,1.5-3.4,3.4-3.4h38c1.9,0,3.4,1.5,3.4,3.4v1.8L62.6,34.7h-8.2c-2.5-6.3-9.6-9.4-15.9-7s-9.4,9.6-7,15.9
	c1.7,4.3,5.7,7.3,10.3,7.8v4.5c0,0.6,0.5,1.1,1.1,1.1h24.6c0.6,0,1.1-0.5,1.1-1.1V40.7l4.5-4.5v23H47.4c-0.6,0-1.1,0.5-1.1,1.1v8.9
	c0,0.6,0.5,1.1,1.1,1.1h25.7v1.1c0,1.9-1.5,3.4-3.4,3.4H51.9v2.2h17.9c3.1,0,5.6-2.5,5.6-5.6v-1.1h7.8c0.6,0,1.1-0.5,1.1-1.1v-8.9
	c0-0.6-0.5-1.1-1.1-1.1h-7.8V34L83.1,26.3z M78.6,21.9c0.8-0.8,2.1-0.8,2.9-0.1s0.8,2.1,0.1,2.9c0,0,0,0-0.1,0.1L81,25.3l-2.9-2.9
	L78.6,21.9z M53,39.1c0,5.1-3.9,9.4-8.9,10V36.9h8.7C52.9,37.6,53,38.4,53,39.1z M41.8,35.8v13.4c-5.5-0.6-9.5-5.6-8.9-11.1
	c0.6-5.5,5.6-9.5,11.1-8.9c3.4,0.4,6.4,2.5,7.9,5.5h-9C42.3,34.7,41.8,35.2,41.8,35.8z M66.4,54.8H44.1v-3.4
	c6.7-0.6,11.7-6.5,11.1-13.3c0-0.4-0.1-0.8-0.2-1.2h5.3l-2.6,2.6c-0.2,0.2-0.3,0.4-0.3,0.6l-1.1,5.6c-0.1,0.6,0.3,1.2,0.9,1.3
	c0.1,0,0.1,0,0.2,0c0.1,0,0.2,0,0.2,0l5.6-1.1c0.2,0,0.4-0.1,0.6-0.3l2.6-2.6V54.8z M59.3,42.5l1.5,1.5l-1.9,0.4L59.3,42.5z
	 M77.6,61.5v2.2h2.2v-2.2h2.2v6.7H48.5v-6.7h2.2v2.2H53v-2.2h2.2v2.2h2.2v-2.2h2.2v2.2H62v-2.2h2.2v2.2h2.2v-2.2h2.2v2.2h2.2v-2.2
	h2.2v2.2h2.2v-2.2H77.6z M63.1,43.2l-2.9-2.9L76.5,24l2.9,2.9L63.1,43.2z"/>
</svg>
