<?xml version="1.0" encoding="utf-8"?>
<!-- Generator: Adobe Illustrator 24.1.0, SVG Export Plug-In . SVG Version: 6.00 Build 0)  -->
<svg version="1.1" id="Layer_1" focusable="false" xmlns="http://www.w3.org/2000/svg" xmlns:xlink="http://www.w3.org/1999/xlink"
	 x="0px" y="0px" viewBox="0 0 24 24" style="enable-background:new 0 0 24 24;" xml:space="preserve">
<style type="text/css">
	.st0{fill:#333E48;}
</style>
<path class="st0" d="M13.7,20.7l-1,1c-0.4,0.4-1.1,0.4-1.6,0l-8.9-8.9c-0.4-0.4-0.4-1.1,0-1.6l8.9-8.9c0.4-0.4,1.1-0.4,1.6,0l1,1
	c0.4,0.4,0.4,1.1,0,1.6l-5.5,5.3h13.2c0.6,0,1.1,0.5,1.1,1.1v1.5c0,0.6-0.5,1.1-1.1,1.1H8.1l5.5,5.3C14.1,19.5,14.1,20.2,13.7,20.7
	L13.7,20.7z"/>
</svg>
