<svg width="24" height="24" viewBox="0 0 24 24" fill="none" xmlns="http://www.w3.org/2000/svg">
<path d="M11.9423 12.3077C11.9423 11.4101 12.2827 10.5492 12.8886 9.91443C13.4945 9.27969 14.3162 8.9231 15.1731 8.9231C16.0299 8.9231 16.8517 9.27969 17.4576 9.91443C18.0635 10.5492 18.4039 11.4101 18.4039 12.3077C18.4039 13.2054 18.0635 14.0663 17.4576 14.701C16.8517 15.3357 16.0299 15.6923 15.1731 15.6923C14.3162 15.6923 13.4945 15.3357 12.8886 14.701C12.2827 14.0663 11.9423 13.2054 11.9423 12.3077V12.3077Z" stroke="#333E48" stroke-width="2"/>
<path d="M5.1731 18.9231C5.1731 18.0662 5.52969 17.2445 6.16443 16.6386C6.79917 16.0327 7.66006 15.6923 8.55771 15.6923H11.9423V18.9231C11.9423 19.7799 11.5857 20.6017 10.951 21.2076C10.3163 21.8135 9.45537 22.1539 8.55771 22.1539C7.66006 22.1539 6.79917 21.8135 6.16443 21.2076C5.52969 20.6017 5.1731 19.7799 5.1731 18.9231Z" stroke="#333E48" stroke-width="2"/>
<path d="M11.9423 2.46155V8.92309H15.1731C16.0299 8.92309 16.8517 8.5827 17.4576 7.97682C18.0635 7.37093 18.4039 6.54917 18.4039 5.69232C18.4039 4.83546 18.0635 4.0137 17.4576 3.40782C16.8517 2.80193 16.0299 2.46155 15.1731 2.46155L11.9423 2.46155Z" stroke="#333E48" stroke-width="2"/>
<path d="M5.1731 5.69232C5.1731 6.54917 5.52969 7.37093 6.16443 7.97682C6.79917 8.5827 7.66006 8.92309 8.55771 8.92309H11.9423V2.46155H8.55771C7.66006 2.46155 6.79917 2.80193 6.16443 3.40782C5.52969 4.0137 5.1731 4.83546 5.1731 5.69232Z" stroke="#333E48" stroke-width="2"/>
<path d="M5.1731 12.3077C5.1731 13.2054 5.52969 14.0663 6.16443 14.701C6.79917 15.3357 7.66006 15.6923 8.55771 15.6923H11.9423V8.9231H8.55771C7.66006 8.9231 6.79917 9.27969 6.16443 9.91443C5.52969 10.5492 5.1731 11.4101 5.1731 12.3077Z" stroke="#333E48" stroke-width="2"/>
</svg>
