<?xml version="1.0" encoding="utf-8"?>
<!-- Generator: Adobe Illustrator 22.1.0, SVG Export Plug-In . SVG Version: 6.00 Build 0)  -->
<svg version="1.1" id="Layer_1" xmlns="http://www.w3.org/2000/svg" xmlns:xlink="http://www.w3.org/1999/xlink" x="0px" y="0px"
	 viewBox="0 0 455 455" style="enable-background:new 0 0 455 455;" xml:space="preserve">
<style type="text/css">
	.st0{fill:#333E48;}
</style>
<g>
	<path class="st0" d="M245.4,205.6v-0.6c-0.1,0.2-0.3,0.4-0.4,0.6H245.4z"/>
	<path class="st0" d="M12,12v431h431V12H12z M146.1,370.1H82.1V177.7h63.9V370.1z M114.1,151.4h-0.4c-21.5,0-35.4-14.8-35.4-33.2
		c0-18.9,14.3-33.2,36.2-33.2c21.9,0,35.3,14.4,35.8,33.2C150.3,136.6,136.4,151.4,114.1,151.4z M376.7,370.1h-64V267.1
		c0-25.9-9.2-43.5-32.4-43.5c-17.7,0-28.2,11.9-32.8,23.4c-1.7,4.1-2.1,9.8-2.1,15.6v107.4h-64c0,0,0.9-174.3,0-192.4h64v27.3
		c8.5-13.1,23.7-31.8,57.6-31.8c42.1,0,73.6,27.5,73.6,86.6V370.1z"/>
</g>
</svg>
