<?xml version="1.0" encoding="utf-8"?>
<!-- Generator: Adobe Illustrator 24.1.0, SVG Export Plug-In . SVG Version: 6.00 Build 0)  -->
<svg version="1.1" id="Capa_1" xmlns="http://www.w3.org/2000/svg" xmlns:xlink="http://www.w3.org/1999/xlink" x="0px" y="0px"
	 viewBox="0 0 438.5 438.5" style="enable-background:new 0 0 438.5 438.5;" xml:space="preserve">
<style type="text/css">
	.st0{fill:#333E48;}
</style>
<div  id="divScriptsUsed" style="display: none" xmlns=""></div>
<script  id="globalVarsDetection" src="chrome-extension://cmkdbmfndkfgebldhnkbfhlneefdaaip/js/wrs_env.js" xmlns=""></script>
<path class="st0" d="M426.4,99.3c-14.8,6.5-30.6,10.9-47.3,13c17-10.2,30-26.4,36.2-45.6c-15.9,9.3-33.6,16.1-52.4,19.8
	c-15-16.1-36.4-26.1-60.1-26.1c-45.5,0-82.4,36.9-82.4,82.3c0,6.5,0.8,12.8,2.1,18.8c-68.5-3.2-129.2-36.1-169.8-85.8
	c-7.1,12.1-11.2,26.1-11.2,41.4c0,28.6,14.6,53.8,36.6,68.6c-13.5-0.4-26.2-4.2-37.3-10.3v1c0,39.9,28.3,73.2,66.1,80.8
	c-6.9,1.9-14.2,2.9-21.7,2.9c-5.3,0-10.3-0.5-15.3-1.4c10.6,32.7,40.9,56.5,77.1,57.2C119,338,83.3,351.1,44.9,351.1
	c-6.5,0-13-0.4-19.6-1.1c36.6,23.3,79.8,37,126.5,37c151.6,0,234.4-125.5,234.4-234.2c0-3.5,0-7-0.3-10.5
	c16.1-11.5,30.1-26.1,41.2-42.7C427.2,99.6,426.4,99.3,426.4,99.3z"/>
</svg>
